<svg width="18" height="21" viewBox="0 0 18 21" fill="none" xmlns="http://www.w3.org/2000/svg">
<path d="M12.25 0.75V1.75C12.25 3.636 12.25 4.578 12.836 5.164C13.421 5.75 14.364 5.75 16.25 5.75H17.25M3.75 3.25C2.95435 3.25 2.19129 3.56607 1.62868 4.12868C1.06607 4.69129 0.75 5.45435 0.75 6.25V14.25C0.75 17.078 0.75 18.493 1.628 19.371C2.507 20.25 3.921 20.25 6.75 20.25H11.75C12.5456 20.25 13.3087 19.9339 13.8713 19.3713C14.4339 18.8087 14.75 18.0456 14.75 17.25M7.25 9.25H11.25M7.25 13.25H14.25" stroke="#DB1F26" stroke-width="1.5" stroke-linecap="round" stroke-linejoin="round"/>
</svg>
